<?xml version="1.0" encoding="UTF-8"?>
<svg xmlns="http://www.w3.org/2000/svg" viewBox="0 0 60 60" width="60" height="60">
  <defs>
    <radialGradient id="p2Body" cx="40%" cy="35%" r="55%">
      <stop offset="0%" stop-color="#ffffff"/>
      <stop offset="30%" stop-color="#e05b5b"/>
      <stop offset="100%" stop-color="#b83838"/>
    </radialGradient>
    <filter id="p2Shadow" x="-15%" y="-15%" width="130%" height="130%">
      <feDropShadow dx="0" dy="2" stdDeviation="2" flood-color="#000" flood-opacity="0.25"/>
    </filter>
  </defs>
  <!-- 影子 -->
  <ellipse cx="30" cy="50" rx="14" ry="5" fill="rgba(0,0,0,0.2)"/>
  <!-- 身体 -->
  <circle cx="30" cy="28" r="20" fill="url(#p2Body)" filter="url(#p2Shadow)"/>
  <circle cx="30" cy="28" r="20" fill="none" stroke="rgba(0,0,0,0.15)" stroke-width="1.5"/>
  <!-- 围巾 -->
  <path d="M12,28 Q18,24 22,26 Q26,20 30,22 Q34,20 38,26 Q42,24 48,28 Q42,32 30,32 Q18,32 12,28Z" fill="#ffd23d" opacity="0.85"/>
  <path d="M12,28 Q18,24 22,26 Q26,20 30,22 Q34,20 38,26 Q42,24 48,28" fill="none" stroke="#e8c030" stroke-width="0.8"/>
  <!-- 眼睛 -->
  <ellipse cx="22" cy="26" rx="5.5" ry="6.5" fill="#fff"/>
  <circle cx="23" cy="27" r="3" fill="#1a1a2e"/>
  <circle cx="21.5" cy="25.5" r="1.2" fill="#fff"/>
  <ellipse cx="38" cy="26" rx="5.5" ry="6.5" fill="#fff"/>
  <circle cx="39" cy="27" r="3" fill="#1a1a2e"/>
  <circle cx="37.5" cy="25.5" r="1.2" fill="#fff"/>
  <!-- 腮红 -->
  <ellipse cx="15" cy="33" rx="3.5" ry="2.2" fill="rgba(255,120,140,0.5)"/>
  <ellipse cx="45" cy="33" rx="3.5" ry="2.2" fill="rgba(255,120,140,0.5)"/>
  <!-- 嘴巴（大笑） -->
  <path d="M24,34 Q30,40 36,34" stroke="#1a1a2e" stroke-width="1.8" fill="none" stroke-linecap="round"/>
  <!-- 手臂 -->
  <circle cx="10" cy="30" r="5.5" fill="#e05b5b"/>
  <circle cx="50" cy="30" r="5.5" fill="#e05b5b"/>
</svg>
